<?xml version="1.0" standalone="no"?>
<!DOCTYPE svg PUBLIC "-//W3C//DTD SVG 20010904//EN"
 "http://www.w3.org/TR/2001/REC-SVG-20010904/DTD/svg10.dtd">
<svg version="1.0" xmlns="http://www.w3.org/2000/svg"
 width="908.000000pt" height="321.000000pt" viewBox="0 0 908.000000 321.000000"
 preserveAspectRatio="xMidYMid meet">

<g transform="translate(0.000000,321.000000) scale(0.100000,-0.100000)"
fill="#000000" stroke="none">
<path d="M8831 3124 c-138 -124 -252 -362 -313 -650 -22 -106 -23 -127 -26
-766 -2 -442 0 -664 7 -677 6 -11 24 -22 40 -26 38 -8 44 -28 44 -135 0 -64
-6 -100 -23 -145 -33 -85 -37 -176 -11 -250 30 -85 27 -114 -15 -168 -48 -61
-55 -117 -25 -181 43 -88 137 -125 290 -114 85 6 124 27 158 86 l28 47 -3 428
c-3 309 0 427 8 427 6 0 22 11 35 25 l25 24 0 768 c0 742 -1 770 -20 838 -32
110 -60 289 -60 384 0 100 -14 131 -59 131 -20 0 -45 -14 -80 -46z m19 -181
c0 -32 35 -215 55 -290 l25 -91 -2 -719 -3 -718 -155 0 -155 0 0 610 0 610 27
126 c38 176 92 316 167 436 24 40 41 54 41 36z m10 -2363 l0 -420 -25 -16
c-19 -12 -42 -15 -99 -12 -62 3 -79 7 -100 27 -14 14 -26 29 -26 34 0 5 18 36
40 69 35 53 40 67 40 118 0 31 -9 83 -20 115 -26 76 -25 104 7 194 24 66 27
91 27 194 l0 117 78 0 78 0 0 -420z"/>
<path d="M8720 610 c-15 -29 -3 -59 26 -66 30 -8 54 11 54 40 0 46 -59 64 -80
26z"/>
<path d="M8725 270 c-37 -41 24 -97 63 -58 18 18 14 56 -7 68 -27 14 -35 13
-56 -10z"/>
<path d="M5146 3098 c-14 -20 -16 -83 -16 -488 0 -596 2 -603 137 -752 44 -48
74 -91 81 -116 13 -41 12 -79 -17 -1200 -5 -178 -5 -340 0 -360 10 -47 73
-107 125 -121 78 -21 163 21 196 96 19 42 19 55 4 666 -24 948 -24 905 1 952
12 22 42 60 68 85 25 25 59 65 75 90 56 87 60 127 60 656 0 453 -1 482 -18
497 -24 22 -65 22 -85 -1 -14 -16 -17 -74 -19 -517 l-3 -500 -24 -45 c-13 -25
-50 -73 -83 -107 -32 -34 -71 -88 -86 -120 l-27 -58 3 -230 c1 -126 9 -473 16
-770 12 -490 12 -542 -2 -558 -21 -23 -63 -18 -77 9 -10 21 -8 162 15 1054 15
556 17 540 -107 672 -113 121 -107 84 -113 663 -3 275 -9 506 -13 513 -14 21
-74 15 -91 -10z"/>
<path d="M5354 3099 c-18 -20 -19 -41 -19 -381 l0 -360 24 -19 c29 -24 43 -24
72 0 l24 19 3 344 c2 188 0 353 -3 365 -13 52 -67 70 -101 32z"/>
<path d="M5557 3102 c-15 -17 -17 -58 -17 -384 0 -387 -1 -378 47 -392 17 -5
29 -1 48 18 l25 25 0 356 c0 342 -1 356 -20 375 -25 25 -62 26 -83 2z"/>
<path d="M6377 2616 c-60 -16 -115 -60 -144 -116 l-23 -43 0 -894 c0 -736 2
-899 14 -927 20 -48 70 -100 116 -121 36 -16 43 -17 56 -3 20 19 9 43 -26 58
-39 16 -79 60 -90 101 -6 21 -10 362 -10 894 l0 861 23 44 c12 24 35 53 50 64
28 21 38 21 710 21 l682 0 34 -24 c18 -13 42 -44 53 -68 15 -35 24 -44 41 -41
30 4 33 37 7 87 -26 52 -87 97 -151 110 -77 17 -1279 14 -1342 -3z"/>
<path d="M4050 2445 c-241 -54 -390 -185 -420 -369 -25 -157 36 -299 173 -402
84 -63 161 -100 361 -175 232 -86 288 -131 290 -231 0 -68 -25 -114 -79 -142
-34 -18 -57 -21 -145 -20 -117 1 -157 13 -209 64 -30 30 -61 110 -61 157 l0
23 -195 0 -194 0 6 -52 c19 -176 126 -325 287 -403 132 -63 211 -79 386 -79
131 0 167 3 235 22 157 45 267 130 323 249 24 53 27 69 27 174 0 113 -1 117
-37 190 -78 157 -198 237 -530 353 -187 66 -258 124 -258 211 0 90 74 147 199
154 144 7 224 -46 245 -161 l7 -38 191 0 191 0 -7 63 c-13 130 -111 274 -231
341 -108 60 -187 79 -345 82 -101 3 -165 -1 -210 -11z"/>
<path d="M6638 2444 c-15 -8 -35 -28 -43 -44 -20 -39 -20 -161 0 -200 32 -61
21 -60 460 -60 439 0 428 -1 460 60 20 39 20 161 0 200 -31 59 -36 60 -462 60
-324 -1 -393 -3 -415 -16z m812 -64 c16 -16 20 -33 20 -80 0 -106 23 -100
-415 -100 -438 0 -415 -6 -415 100 0 106 -23 100 415 100 362 0 376 -1 395
-20z"/>
<path d="M160 1635 l0 -805 190 0 190 0 0 220 c0 121 -7 371 -15 556 -9 185
-14 338 -12 340 2 2 81 -225 177 -504 95 -279 182 -531 192 -559 l19 -53 127
0 127 0 190 556 c119 348 191 547 193 530 2 -14 -4 -181 -12 -370 -9 -189 -16
-428 -16 -530 l0 -186 195 0 195 0 0 805 0 805 -257 -2 -257 -3 -79 -245 c-43
-135 -124 -384 -179 -555 l-101 -310 -23 70 c-36 111 -321 998 -329 1023 l-6
22 -255 0 -254 0 0 -805z"/>
<path d="M2150 1636 l0 -806 190 0 190 0 0 275 0 275 173 0 c251 1 371 27 494
108 61 39 136 119 164 174 48 95 63 258 34 371 -38 146 -134 266 -267 331
-138 69 -141 69 -580 73 l-398 4 0 -805z m737 487 c51 -17 105 -77 121 -132
15 -48 14 -146 -1 -188 -17 -46 -52 -82 -100 -104 -36 -16 -67 -19 -209 -19
l-168 0 0 230 0 229 128 3 c149 3 173 2 229 -19z"/>
<path d="M7844 2308 c-4 -7 -8 -294 -8 -639 l-1 -628 -235 -239 -235 -239
-412 -2 c-226 0 -418 -4 -427 -7 -9 -3 -16 -16 -16 -29 0 -13 7 -26 16 -29 9
-3 196 -6 416 -6 l400 0 -6 -27 c-4 -16 -10 -51 -13 -80 -5 -48 -3 -54 25 -82
51 -51 97 -51 242 2 50 18 86 51 422 386 396 395 390 388 373 477 -7 40 -80
126 -127 150 -32 17 -86 18 -125 3 -15 -5 -74 -56 -130 -112 l-103 -102 0 596
c0 449 -3 598 -12 607 -15 15 -35 15 -44 0z m426 -1084 c53 -49 68 -89 49
-126 -15 -30 -90 -108 -103 -108 -14 0 -166 152 -166 165 0 13 89 101 110 108
38 14 63 5 110 -39z m-110 -288 c0 -13 -61 -76 -74 -76 -6 0 -48 37 -93 82
l-83 82 42 43 42 43 83 -82 c46 -45 83 -87 83 -92z m-208 -43 c43 -43 78 -82
78 -88 0 -16 -407 -418 -418 -414 -20 8 -162 149 -162 161 0 15 400 418 415
418 5 0 45 -35 87 -77z m-470 -470 c32 -32 58 -61 58 -65 0 -4 -25 -15 -55
-24 -51 -14 -58 -14 -80 0 -28 18 -30 36 -14 87 6 19 12 40 15 47 6 20 16 14
76 -45z"/>
<path d="M7751 737 c-65 -66 -76 -99 -36 -105 13 -2 41 19 85 63 54 55 63 68
54 83 -20 31 -38 23 -103 -41z"/>
<path d="M6665 1920 c-49 -49 -94 -90 -99 -90 -6 0 -25 15 -43 32 -27 26 -37
30 -50 22 -9 -6 -19 -16 -21 -22 -6 -18 88 -112 112 -112 30 0 239 211 234
236 -8 43 -42 26 -133 -66z"/>
<path d="M6974 1865 c-4 -8 -4 -22 0 -30 5 -13 48 -15 304 -15 254 0 301 2
312 15 10 12 10 18 0 30 -11 13 -58 15 -312 15 -256 0 -299 -2 -304 -15z"/>
<path d="M6562 1543 c-52 -25 -77 -69 -77 -133 0 -70 28 -112 90 -135 77 -30
159 5 191 82 19 44 18 69 -7 119 -34 72 -125 103 -197 67z m126 -76 c15 -14
22 -32 22 -57 0 -91 -125 -115 -160 -30 -17 41 2 88 44 106 36 15 62 10 94
-19z"/>
<path d="M6974 1425 c-4 -8 -4 -22 0 -30 5 -13 48 -15 304 -15 314 0 332 2
316 44 -5 14 -39 16 -310 16 -262 0 -305 -2 -310 -15z"/>
<path d="M6560 1102 c-55 -27 -83 -77 -78 -138 6 -66 35 -108 93 -129 77 -30
159 5 191 82 19 44 18 69 -6 118 -36 75 -125 105 -200 67z m96 -52 c37 -14 53
-38 54 -79 1 -98 -142 -113 -166 -17 -8 32 14 77 46 93 31 15 32 16 66 3z"/>
<path d="M6974 985 c-4 -8 -4 -22 0 -30 5 -13 48 -15 304 -15 314 0 332 2 316
44 -5 14 -39 16 -310 16 -262 0 -305 -2 -310 -15z"/>
<path d="M30 605 l0 -55 2445 0 2445 0 0 55 0 55 -2445 0 -2445 0 0 -55z"/>
</g>
</svg>
