<?xml version="1.0" standalone="no"?>
<!DOCTYPE svg PUBLIC "-//W3C//DTD SVG 20010904//EN"
 "http://www.w3.org/TR/2001/REC-SVG-20010904/DTD/svg10.dtd">
<svg version="1.0" xmlns="http://www.w3.org/2000/svg"
 width="2000.000000pt" height="1247.000000pt" viewBox="0 0 2000.000000 1247.000000"
 preserveAspectRatio="xMidYMid meet">

<g transform="translate(0.000000,1247.000000) scale(0.100000,-0.100000)"
fill="#000000" stroke="none">
<path d="M17068 11303 l-108 -4 0 -114 0 -115 1250 0 1250 0 0 -4835 0 -4835
-1335 0 -1335 0 0 -113 0 -114 158 -6 c86 -4 739 -7 1450 -7 l1292 0 0 5075 0
5075 -1257 -2 c-692 -1 -1306 -4 -1365 -5z"/>
<path d="M12035 7950 c-37 -19 -42 -19 -73 -4 -65 30 -143 -5 -162 -74 -5 -20
-31 -262 -56 -537 -52 -562 -52 -570 11 -700 32 -67 125 -172 179 -202 19 -11
18 -27 -43 -764 -36 -433 -61 -781 -58 -817 10 -123 94 -238 217 -296 57 -27
76 -31 150 -30 118 0 185 27 266 108 65 66 101 139 110 226 3 25 -24 385 -60
800 l-65 755 27 20 c150 115 222 250 222 414 0 42 -20 289 -44 550 -49 522
-45 506 -119 546 -35 19 -38 19 -85 3 -47 -17 -50 -17 -87 2 -49 25 -68 25
-121 0 l-42 -21 -38 21 c-49 25 -79 25 -129 0z m109 -92 c14 -20 16 -85 16
-510 l0 -488 43 0 42 0 -3 486 c-3 544 -4 534 62 534 18 0 39 -7 46 -15 9 -11
14 -138 18 -510 l5 -495 38 0 39 0 0 493 c0 370 3 496 12 505 14 14 54 16 62
4 3 -5 26 -238 52 -518 51 -558 51 -574 0 -679 -30 -60 -112 -145 -170 -176
l-42 -22 63 -741 c34 -407 63 -776 63 -818 1 -63 -3 -88 -23 -130 -61 -134
-206 -199 -355 -159 -88 24 -184 133 -197 225 -3 22 23 396 59 829 36 433 66
790 66 792 0 3 -17 13 -37 24 -119 60 -205 196 -211 330 -4 73 70 939 85 1011
7 31 12 35 38 35 l30 0 6 -180 c4 -99 7 -325 8 -502 l1 -323 40 0 40 0 0 494
c0 436 2 496 16 510 23 24 70 20 88 -6z"/>
<path d="M14574 7959 c-157 -24 -300 -96 -418 -210 -143 -137 -232 -325 -243
-514 l-6 -92 -87 -11 c-181 -24 -381 -102 -546 -212 -102 -68 -275 -243 -343
-345 -97 -148 -172 -335 -202 -505 -19 -105 -16 -345 5 -445 99 -468 417 -832
856 -979 379 -127 786 -72 1120 149 350 232 570 644 570 1065 0 199 -41 373
-129 555 -114 233 -265 401 -485 539 -99 63 -195 104 -322 141 -49 14 -93 27
-98 28 -6 2 21 18 58 35 177 83 324 234 406 416 49 109 121 368 107 382 -10
10 -184 13 -243 3z m146 -88 c0 -28 -57 -198 -90 -268 -47 -101 -87 -160 -154
-226 -114 -115 -235 -173 -465 -223 l-24 -5 7 75 c10 107 30 179 80 281 110
223 341 373 579 374 37 1 67 -3 67 -8z m-439 -844 c466 -121 794 -465 895
-937 26 -122 24 -343 -3 -470 -104 -478 -458 -833 -935 -936 -112 -24 -295
-29 -414 -10 -486 74 -866 417 -990 893 -35 133 -44 365 -20 498 93 505 479
892 977 980 130 22 367 14 490 -18z"/>
<path d="M15870 7961 c-99 -32 -142 -83 -245 -294 -92 -189 -152 -351 -187
-509 -19 -86 -23 -130 -22 -263 1 -180 22 -282 87 -432 l34 -80 -64 -754 c-36
-438 -60 -774 -57 -802 8 -67 66 -177 115 -222 155 -140 379 -133 527 16 65
67 95 136 100 233 2 48 -21 377 -57 801 l-61 721 30 284 c61 598 83 860 84
1006 l1 152 -31 43 c-55 76 -179 125 -254 100z m147 -109 c17 -12 39 -38 48
-59 18 -37 17 -51 -46 -728 l-63 -690 63 -756 c37 -441 60 -772 57 -796 -16
-93 -93 -181 -192 -219 -54 -21 -173 -15 -222 10 -99 51 -162 148 -162 251 0
33 27 392 61 797 l61 737 -36 84 c-66 154 -103 350 -91 482 17 175 88 411 193
640 112 244 144 280 243 273 36 -3 66 -12 86 -26z"/>
</g>
</svg>
